<svg width="1024" height="1024" viewBox="0 0 1024 1024" fill="none" xmlns="http://www.w3.org/2000/svg">
  <defs>
    <linearGradient id="bg" x1="152" y1="136" x2="860" y2="888" gradientUnits="userSpaceOnUse">
      <stop offset="0" stop-color="#173D35"/>
      <stop offset="0.55" stop-color="#25584D"/>
      <stop offset="1" stop-color="#D1A158"/>
    </linearGradient>
  </defs>

  <rect x="64" y="64" width="896" height="896" rx="220" fill="url(#bg)"/>
  <rect x="210" y="196" width="604" height="632" rx="132" fill="#F4ECD9"/>

  <path d="M320 196H646C728.843 196 796 263.157 796 346V828H470C387.157 828 320 760.843 320 678V196Z" fill="#1F4C41"/>
  <path d="M228 246C228 218.386 250.386 196 278 196H470V828H278C250.386 828 228 805.614 228 778V246Z" fill="#C88D38"/>

  <path d="M450 414H694" stroke="#F4ECD9" stroke-width="46" stroke-linecap="round"/>
  <path d="M450 524H694" stroke="#F4ECD9" stroke-width="46" stroke-linecap="round"/>
  <path d="M450 634H610" stroke="#F4ECD9" stroke-width="46" stroke-linecap="round"/>
</svg>
